<svg aria-hidden="true" style="position: absolute; width: 0; height: 0; overflow: hidden;" version="1.1" xmlns="http://www.w3.org/2000/svg" xmlns:xlink="http://www.w3.org/1999/xlink">
<defs>
<symbol id="icon-icon-facebook" viewBox="0 0 32 32">
<path d="M30.234 0h-28.467c-0.976 0-1.766 0.79-1.766 1.766v28.469c0 0.974 0.79 1.765 1.766 1.765h15.328v-12.392h-4.173v-4.829h4.17v-3.563c0-4.133 2.525-6.384 6.213-6.384 1.766 0 3.283 0.131 3.726 0.19v4.32h-2.557c-2.006 0-2.394 0.955-2.394 2.352v3.085h4.782l-0.624 4.829h-4.16v12.392h8.157c0.973 0 1.763-0.79 1.763-1.766v-28.467c0.002-0.976-0.789-1.766-1.765-1.766z"></path>
</symbol>
<symbol id="icon-icon-youtube" viewBox="0 0 34 32">
<path d="M16.533 0c-8.835 0-16 7.165-16 16 0 8.837 7.165 16 16 16 8.837 0 16-7.163 16-16 0-8.835-7.163-16-16-16zM22.454 22.523c-2.803 0.192-9.045 0.192-11.843 0-3.035-0.208-3.389-1.694-3.411-6.523 0.022-4.838 0.379-6.315 3.411-6.523 2.798-0.192 9.042-0.192 11.843 0 3.037 0.208 3.389 1.694 3.413 6.523-0.024 4.838-0.381 6.315-3.413 6.523zM13.867 12.877l6.555 3.118-6.555 3.128v-6.246z"></path>
</symbol>
<symbol id="icon-icon-twitter" viewBox="0 0 37 32">
<path d="M36.741 4.972c-1.22 0.556-2.636 0.96-4.12 1.141l-0.070 0.007c1.509-0.913 2.643-2.316 3.192-3.984l0.015-0.052c-1.334 0.805-2.886 1.42-4.539 1.755l-0.094 0.016c-1.332-1.42-3.22-2.304-5.315-2.304-0.003 0-0.007 0-0.010 0h0.001c-4.709 0-8.169 4.395-7.106 8.956-6.077-0.313-11.422-3.201-15.005-7.584l-0.029-0.037c-0.62 1.051-0.987 2.316-0.987 3.666 0 2.521 1.277 4.743 3.219 6.056l0.026 0.016c-1.219-0.038-2.352-0.371-3.341-0.929l0.036 0.019c-0.080 3.38 2.341 6.542 5.849 7.244-0.575 0.162-1.234 0.256-1.916 0.256-0.487 0-0.964-0.048-1.425-0.139l0.046 0.008c0.959 2.922 3.636 5.006 6.809 5.067l0.007 0c-2.467 1.949-5.622 3.127-9.052 3.127-0.616 0-1.223-0.038-1.819-0.112l0.071 0.007c3.155 2.055 7.016 3.276 11.162 3.276 0.007 0 0.014 0 0.021 0h-0.001c13.543 0 21.195-11.438 20.732-21.698 1.433-1.044 2.641-2.296 3.607-3.724l0.033-0.052z"></path>
</symbol>
<symbol id="icon-icon-pinterest" viewBox="0 0 32 32">
<path d="M16 0c-8.835 0-16 7.163-16 16 0 6.779 4.218 12.568 10.17 14.899-0.141-1.266-0.267-3.208 0.056-4.589 0.291-1.248 1.875-7.952 1.875-7.952s-0.478-0.96-0.478-2.378c0-2.224 1.29-3.885 2.896-3.885 1.363 0 2.022 1.024 2.022 2.253 0 1.373-0.872 3.424-1.325 5.328-0.378 1.592 0.8 2.891 2.368 2.891 2.845 0 5.030-2.998 5.030-7.328 0-3.829-2.752-6.509-6.683-6.509-4.552 0-7.224 3.416-7.224 6.944 0 1.374 0.53 2.85 1.192 3.65 0.080 0.086 0.129 0.201 0.129 0.328 0 0.047-0.007 0.093-0.020 0.137l0.001-0.003-0.445 1.813c-0.070 0.293-0.232 0.357-0.536 0.214-1.998-0.93-3.248-3.851-3.248-6.198 0-5.046 3.667-9.683 10.573-9.683 5.55 0 9.864 3.957 9.864 9.242 0 5.515-3.477 9.952-8.304 9.952-1.621 0-3.144-0.84-3.666-1.837l-0.997 3.805c-0.362 1.39-1.336 3.133-1.99 4.194 1.499 0.464 3.090 0.714 4.739 0.714 8.835 0 16-7.163 16-16s-7.165-16-16-16z"></path>
</symbol>
<symbol id="icon-icon-instagram" viewBox="0 0 34 32">
<path d="M16.533 2.883c4.272 0 4.779 0.016 6.467 0.094 4.336 0.197 6.362 2.254 6.56 6.558 0.077 1.686 0.091 2.192 0.091 6.464 0 4.275-0.016 4.781-0.093 6.467-0.198 4.299-2.218 6.36-6.558 6.558-1.688 0.077-2.192 0.093-6.467 0.093-4.272 0-4.778-0.016-6.464-0.093-4.347-0.198-6.362-2.266-6.56-6.56-0.077-1.686-0.093-2.192-0.093-6.466 0-4.272 0.016-4.778 0.093-6.464 0.198-4.304 2.219-6.363 6.56-6.56 1.686-0.077 2.192-0.093 6.464-0.093zM16.533 0c-4.344 0-4.888 0.019-6.595 0.096-5.811 0.267-9.042 3.491-9.307 9.307-0.078 1.707-0.096 2.251-0.096 6.597s0.018 4.891 0.096 6.597c0.266 5.811 3.49 9.040 9.306 9.307 1.709 0.077 2.253 0.096 6.597 0.096 4.346 0 4.891-0.019 6.598-0.096 5.805-0.267 9.042-3.491 9.306-9.307 0.078-1.706 0.096-2.251 0.096-6.597s-0.018-4.89-0.096-6.595c-0.261-5.806-3.488-9.040-9.304-9.309-1.709-0.080-2.254-0.096-6.6-0.096zM16.533 7.784c-4.538 0-8.216 3.678-8.216 8.216s3.678 8.216 8.216 8.216v0c4.538 0 8.216-3.678 8.216-8.216s-3.678-8.216-8.216-8.216v0zM16.533 21.333c-2.945 0-5.333-2.388-5.333-5.333s2.388-5.333 5.333-5.333v0c2.945 0 5.333 2.388 5.333 5.333s-2.388 5.333-5.333 5.333v0zM25.075 5.541c-0 0-0.001 0-0.001 0-1.060 0-1.92 0.86-1.92 1.92s0.859 1.92 1.919 1.92h0c1.060 0 1.92-0.86 1.92-1.92s-0.86-1.92-1.92-1.92v0z"></path>
</symbol>
<symbol id="icon-logo" viewBox="0 0 222 32">
<path d="M60.406 25.355c4.563 0 8.243-2.595 9.523-6.746h-6.235c-0.602 1.064-1.824 1.706-3.288 1.706-1.979 0-3.304-1.078-3.712-3.165h13.504c0.082-0.563 0.13-1.11 0.13-1.659 0-5.336-4.059-9.52-9.922-9.52-5.709 0-9.88 4.102-9.88 9.678 0 5.557 4.205 9.706 9.88 9.706zM64.157 13.68h-7.354c0.507-1.806 1.776-2.798 3.603-2.798 1.89 0 3.2 0.981 3.75 2.8zM81.67 25.354c2.112 0 4-0.694 5.488-1.901l0.538 1.286h4.843v-18.19h-4.67l-0.64 1.408c-1.504-1.24-3.416-1.955-5.558-1.955-5.562 0-9.538 4.008-9.538 9.642 0 5.653 3.976 9.712 9.538 9.712zM82.509 19.806c-2.347 0-4.072-1.773-4.072-4.149 0-2.36 1.71-4.133 4.072-4.133 2.346 0 4.070 1.773 4.070 4.133 0 2.376-1.725 4.149-4.070 4.149zM103.506 25.354c4.832 0 8.040-2.486 8.040-6.288 0-4.613-3.819-5.21-6.693-5.72-1.728-0.309-3.12-0.55-3.12-1.584 0-0.843 0.675-1.341 1.68-1.341 1.136 0 1.915 0.539 1.915 1.701h5.867c-0.070-3.685-3.072-6.149-7.706-6.149-4.659 0-7.766 2.352-7.766 6 0 4.411 3.739 5.262 6.56 5.718 1.747 0.29 3.123 0.589 3.123 1.638 0 0.939-0.869 1.408-1.786 1.408-1.187 0-2.112-0.613-2.112-1.942h-6.032c0.058 3.941 3.070 6.56 8.029 6.56zM116.466 31.526c4.698 0 6.95-2.011 9.403-7.578l7.622-17.381h-6.73l-3.598 10.021-3.859-10.021h-6.808l7.517 16.688c-0.848 2.262-1.573 2.886-3.968 2.886h-1.725v5.384h2.146zM146.072 25.354c5.6 0 9.557-4.024 9.557-9.677s-3.955-9.677-9.557-9.677c-0.020-0-0.043-0-0.067-0-1.647 0-3.186 0.467-4.49 1.276l0.036-0.021v-7.254h-6.192v24.758h4.635l0.592-1.35c1.477 1.234 3.363 1.946 5.485 1.946zM145.235 19.806c-2.347 0-4.072-1.773-4.072-4.128 0-2.378 1.725-4.15 4.072-4.15 2.346 0 4.070 1.773 4.070 4.149 0 2.357-1.739 4.128-4.070 4.128zM166.992 25.354c2.112 0 4-0.694 5.488-1.901l0.538 1.286h4.843v-18.19h-4.669l-0.642 1.408c-1.502-1.24-3.416-1.955-5.558-1.955-5.562 0-9.536 4.008-9.536 9.642 0 5.653 3.974 9.712 9.536 9.712zM167.83 19.806c-2.347 0-4.072-1.773-4.072-4.149 0-2.36 1.712-4.133 4.072-4.133 2.347 0 4.072 1.773 4.072 4.133 0 2.376-1.725 4.149-4.072 4.149zM188.075 24.758v-9.714c0-2.315 1.123-3.68 3.077-3.68 1.578 0 2.373 1.051 2.373 3.168v10.224h6.264v-11.088c0-4.635-2.773-7.637-6.997-7.637-2.352 0-4.373 0.904-5.728 2.413l-0.859-1.875h-4.395v18.19h6.266zM210.072 24.758v-7.693l4.557 7.693h7.386l-6.243-9.52 5.669-8.67h-7.035l-4.333 7.126v-13.694h-6.266v24.758h6.266z"></path>
<path d="M17.283 0l-17.283 31.526h9.578l17.285-31.526z"></path>
<path d="M29.074 0l-17.285 31.526h9.578l17.285-31.526z"></path>
<path d="M40.862 0l-17.283 31.526h9.578l17.283-31.526z"></path>
</symbol>
</defs>
</svg>
